<svg width="38" height="35" viewBox="0 0 38 35" fill="none" xmlns="http://www.w3.org/2000/svg">
<path d="M2.918 13.5816L1.459 15.2642L0 13.5816L1.459 11.8991L2.918 13.5816ZM38 32.6202C38 33.2513 37.7826 33.8567 37.3956 34.303C37.0086 34.7493 36.4837 35 35.9364 35C35.389 35 34.8641 34.7493 34.4771 34.303C34.0901 33.8567 33.8727 33.2513 33.8727 32.6202H38ZM11.7772 27.1633L1.459 15.2642L4.377 11.8991L14.6952 23.7982L11.7772 27.1633ZM1.459 11.8991L11.7772 0L14.6952 3.36506L4.377 15.2642L1.459 11.8991ZM2.918 11.2018H23.5545V15.9614H2.918V11.2018ZM38 27.8605V32.6202H33.8727V27.8605H38ZM23.5545 11.2018C27.3857 11.2018 31.0599 12.9569 33.769 16.081C36.4781 19.2052 38 23.4424 38 27.8605H33.8727C33.8727 24.7047 32.7856 21.6781 30.8506 19.4466C28.9155 17.2151 26.291 15.9614 23.5545 15.9614V11.2018Z" fill="white"/>
</svg>
