<svg width="31" height="33" viewBox="0 0 31 33" fill="none" xmlns="http://www.w3.org/2000/svg">
<path d="M25.25 32.75C23.8958 32.75 22.7448 32.276 21.7969 31.3281C20.849 30.3802 20.375 29.2292 20.375 27.875C20.375 27.6854 20.3885 27.4888 20.4156 27.2851C20.4427 27.0815 20.4833 26.8989 20.5375 26.7375L9.08125 20.075C8.62083 20.4812 8.10625 20.7998 7.5375 21.0305C6.96875 21.2613 6.37292 21.3761 5.75 21.375C4.39583 21.375 3.24479 20.901 2.29688 19.9531C1.34896 19.0052 0.875 17.8542 0.875 16.5C0.875 15.1458 1.34896 13.9948 2.29688 13.0469C3.24479 12.099 4.39583 11.625 5.75 11.625C6.37292 11.625 6.96875 11.7404 7.5375 11.9711C8.10625 12.2019 8.62083 12.5198 9.08125 12.925L20.5375 6.2625C20.4833 6.1 20.4427 5.91746 20.4156 5.71487C20.3885 5.51229 20.375 5.31567 20.375 5.125C20.375 3.77083 20.849 2.61979 21.7969 1.67188C22.7448 0.723958 23.8958 0.25 25.25 0.25C26.6042 0.25 27.7552 0.723958 28.7031 1.67188C29.651 2.61979 30.125 3.77083 30.125 5.125C30.125 6.47917 29.651 7.63021 28.7031 8.57812C27.7552 9.52604 26.6042 10 25.25 10C24.6271 10 24.0312 9.88517 23.4625 9.6555C22.8937 9.42583 22.3792 9.10733 21.9187 8.7L10.4625 15.3625C10.5167 15.525 10.5573 15.7081 10.5844 15.9117C10.6115 16.1154 10.625 16.3115 10.625 16.5C10.625 16.6896 10.6115 16.8862 10.5844 17.0899C10.5573 17.2935 10.5167 17.4761 10.4625 17.6375L21.9187 24.3C22.3792 23.8937 22.8937 23.5758 23.4625 23.3461C24.0312 23.1165 24.6271 23.0011 25.25 23C26.6042 23 27.7552 23.474 28.7031 24.4219C29.651 25.3698 30.125 26.5208 30.125 27.875C30.125 29.2292 29.651 30.3802 28.7031 31.3281C27.7552 32.276 26.6042 32.75 25.25 32.75ZM25.25 6.75C25.7104 6.75 26.0966 6.594 26.4086 6.282C26.7206 5.97 26.8761 5.58433 26.875 5.125C26.875 4.66458 26.719 4.27838 26.407 3.96638C26.095 3.65438 25.7093 3.49892 25.25 3.5C24.7896 3.5 24.4034 3.656 24.0914 3.968C23.7794 4.28 23.6239 4.66567 23.625 5.125C23.625 5.58542 23.781 5.97162 24.093 6.28362C24.405 6.59562 24.7907 6.75108 25.25 6.75ZM5.75 18.125C6.21042 18.125 6.59662 17.969 6.90862 17.657C7.22062 17.345 7.37608 16.9593 7.375 16.5C7.375 16.0396 7.219 15.6534 6.907 15.3414C6.595 15.0294 6.20933 14.8739 5.75 14.875C5.28958 14.875 4.90338 15.031 4.59138 15.343C4.27938 15.655 4.12392 16.0407 4.125 16.5C4.125 16.9604 4.281 17.3466 4.593 17.6586C4.905 17.9706 5.29067 18.1261 5.75 18.125ZM25.25 29.5C25.7104 29.5 26.0966 29.344 26.4086 29.032C26.7206 28.72 26.8761 28.3343 26.875 27.875C26.875 27.4146 26.719 27.0284 26.407 26.7164C26.095 26.4044 25.7093 26.2489 25.25 26.25C24.7896 26.25 24.4034 26.406 24.0914 26.718C23.7794 27.03 23.6239 27.4157 23.625 27.875C23.625 28.3354 23.781 28.7216 24.093 29.0336C24.405 29.3456 24.7907 29.5011 25.25 29.5Z" fill="white"/>
</svg>
