<svg width="46" height="46" viewBox="0 0 46 46" fill="none" xmlns="http://www.w3.org/2000/svg">
<g id="dustbin-bin-trush_svgrepo.com">
<path id="Vector" d="M36.5556 9.61688H9.34375C9.05781 9.61688 8.78359 9.50329 8.5814 9.30111C8.37921 9.09892 8.26563 8.82469 8.26562 8.53876C8.26562 8.25282 8.37921 7.9786 8.5814 7.77641C8.78359 7.57422 9.05781 7.46063 9.34375 7.46063H36.5556C36.8416 7.46063 37.1158 7.57422 37.318 7.77641C37.5202 7.9786 37.6338 8.25282 37.6338 8.53876C37.6338 8.82469 37.5202 9.09892 37.318 9.30111C37.1158 9.50329 36.8416 9.61688 36.5556 9.61688Z" fill="#FF5656"/>
<path id="Vector_2" d="M30.475 41.6372H15.4387C14.3903 41.6372 13.3848 41.2207 12.6434 40.4793C11.9021 39.738 11.4856 38.7325 11.4856 37.6841V8.53156C11.4856 8.24562 11.5992 7.97139 11.8014 7.76921C12.0036 7.56702 12.2778 7.45343 12.5637 7.45343H33.35C33.6359 7.45343 33.9101 7.56702 34.1123 7.76921C34.3145 7.97139 34.4281 8.24562 34.4281 8.53156V37.6841C34.4262 38.7319 34.0091 39.7363 33.2682 40.4772C32.5272 41.2182 31.5228 41.6353 30.475 41.6372ZM13.6562 9.60968V37.6841C13.6562 38.1606 13.8455 38.6177 14.1825 38.9546C14.5195 39.2916 14.9765 39.4809 15.4531 39.4809H30.475C30.9515 39.4809 31.4086 39.2916 31.7456 38.9546C32.0825 38.6177 32.2718 38.1606 32.2718 37.6841V9.60968H13.6562Z" fill="#FF5656"/>
<path id="Vector_3" d="M28.7501 9.60968H17.1782C16.8923 9.60968 16.6181 9.4961 16.4159 9.29391C16.2137 9.09172 16.1001 8.81749 16.1001 8.53156V4.72218C16.1001 4.43625 16.2137 4.16202 16.4159 3.95983C16.6181 3.75765 16.8923 3.64406 17.1782 3.64406H28.7501C29.036 3.64406 29.3103 3.75765 29.5124 3.95983C29.7146 4.16202 29.8282 4.43625 29.8282 4.72218V8.53156C29.8282 8.81749 29.7146 9.09172 29.5124 9.29391C29.3103 9.4961 29.036 9.60968 28.7501 9.60968ZM18.2707 7.45343H27.6576V5.80031H18.2563L18.2707 7.45343Z" fill="#FF5656"/>
<path id="Vector_4" d="M17.9255 34.2197C17.6396 34.2197 17.3654 34.1061 17.1632 33.9039C16.961 33.7017 16.8474 33.4275 16.8474 33.1416V15.4244C16.8474 15.1384 16.961 14.8642 17.1632 14.662C17.3654 14.4598 17.6396 14.3463 17.9255 14.3463C18.2115 14.3463 18.4857 14.4598 18.6879 14.662C18.8901 14.8642 19.0037 15.1384 19.0037 15.4244V33.1416C19.0037 33.4275 18.8901 33.7017 18.6879 33.9039C18.4857 34.1061 18.2115 34.2197 17.9255 34.2197Z" fill="#FF5656"/>
<path id="Vector_5" d="M27.988 34.2197C27.7021 34.2197 27.4279 34.1061 27.2257 33.9039C27.0235 33.7017 26.9099 33.4275 26.9099 33.1416V15.4244C26.9099 15.1384 27.0235 14.8642 27.2257 14.662C27.4279 14.4598 27.7021 14.3463 27.988 14.3463C28.274 14.3463 28.5482 14.4598 28.7504 14.662C28.9526 14.8642 29.0662 15.1384 29.0662 15.4244V33.1416C29.0662 33.4275 28.9526 33.7017 28.7504 33.9039C28.5482 34.1061 28.274 34.2197 27.988 34.2197Z" fill="#FF5656"/>
<path id="Vector_6" d="M22.9568 29.0231C22.6709 29.0231 22.3966 28.9095 22.1944 28.7074C21.9922 28.5052 21.8787 28.2309 21.8787 27.945V20.6281C21.8787 20.4865 21.9065 20.3464 21.9607 20.2155C22.0149 20.0847 22.0943 19.9659 22.1944 19.8658C22.2945 19.7657 22.4134 19.6863 22.5442 19.6321C22.675 19.5779 22.8152 19.55 22.9568 19.55C23.0984 19.55 23.2386 19.5779 23.3694 19.6321C23.5002 19.6863 23.619 19.7657 23.7191 19.8658C23.8192 19.9659 23.8987 20.0847 23.9528 20.2155C24.007 20.3464 24.0349 20.4865 24.0349 20.6281V27.945C24.0349 28.2309 23.9213 28.5052 23.7191 28.7074C23.5169 28.9095 23.2427 29.0231 22.9568 29.0231Z" fill="#FF5656"/>
</g>
</svg>
