<svg width="31" height="39" viewBox="0 0 31 39" fill="none" xmlns="http://www.w3.org/2000/svg">
<path id="Vector" d="M17.32 9.34571C17.9148 8.53125 17.7954 7.34187 17.0532 6.68911C16.3112 6.03638 15.2276 6.16744 14.633 6.98189L17.32 9.34571ZM2.43584 26.7072L3.73993 27.9412C3.75338 27.9241 3.76653 27.9067 3.77941 27.889L2.43584 26.7072ZM2.04326 27.7605L0.324765 27.6373L0.32325 27.6731L2.04326 27.7605ZM1.72185 35.378L0.00183827 35.2905C-0.0021105 35.3843 0.000300088 35.4782 0.009093 35.5717L1.72185 35.378ZM3.52864 37.1091L3.58494 38.9979C3.69977 38.9936 3.81392 38.977 3.92572 38.9478L3.52864 37.1091ZM10.416 35.3175L10.8132 37.1564L10.8398 37.1491L10.416 35.3175ZM11.2999 34.7026L12.6283 35.9053L12.6432 35.8849L11.2999 34.7026ZM26.5098 16.9057C27.1047 16.0912 26.9855 14.9019 26.2437 14.2489C25.502 13.5959 24.4181 13.7267 23.8233 14.5411L26.5098 16.9057ZM14.6401 6.98139C14.0452 7.79562 14.1642 8.98505 14.9062 9.63808C15.6479 10.2911 16.7316 10.1604 17.3266 9.34621L14.6401 6.98139ZM19.6291 3.17454L20.9723 4.35697C20.9948 4.326 21.0167 4.29425 21.0375 4.26177L19.6291 3.17454ZM23.3689 2.3682L24.4705 0.915675C24.4156 0.865581 24.358 0.819292 24.298 0.777035L23.3689 2.3682ZM28.5046 7.06011L29.7232 5.72501C29.6858 5.68391 29.6468 5.64475 29.6062 5.60758L28.5046 7.06011ZM28.484 11.1876L27.2787 9.83786C27.23 9.89037 27.1841 9.94601 27.1412 10.0045L28.484 11.1876ZM23.8233 14.5411C23.228 15.355 23.3471 16.5436 24.0887 17.1969C24.8302 17.8503 25.9145 17.7196 26.5098 16.9057L23.8233 14.5411ZM17.6861 7.88374C17.5452 6.85152 16.6686 6.14012 15.7283 6.29481C14.7877 6.44948 14.1396 7.41165 14.2806 8.44387L17.6861 7.88374ZM25.3984 17.5958C26.3406 17.4555 27.0007 16.503 26.8728 15.4688C26.7447 14.4346 25.8771 13.7101 24.9347 13.8506L25.3984 17.5958ZM14.633 6.98189L1.09227 25.5252L3.77941 27.889L17.32 9.34571L14.633 6.98189ZM1.13176 25.473C0.655704 26.0791 0.372219 26.8388 0.324765 27.6373L3.76146 27.8835C3.7602 27.9047 3.75265 27.9251 3.73993 27.9412L1.13176 25.473ZM0.32325 27.6731L0.00183827 35.2905L3.44186 35.4654L3.76327 27.848L0.32325 27.6731ZM0.009093 35.5717C0.196591 37.5672 1.75831 39.0634 3.58494 38.9979L3.47235 35.2202C3.465 35.2205 3.4614 35.2192 3.45906 35.2182C3.45577 35.2169 3.45144 35.2144 3.447 35.2101C3.44255 35.2058 3.43968 35.2016 3.43805 35.1983C3.43688 35.1958 3.43536 35.192 3.43461 35.1839L0.009093 35.5717ZM3.92572 38.9478L10.8132 37.1564L10.0189 33.4785L3.13156 35.2701L3.92572 38.9478ZM10.8398 37.1491C11.5412 36.9536 12.1677 36.5182 12.6283 35.9053L9.97157 33.4999C9.97708 33.4929 9.9842 33.4878 9.99223 33.4856L10.8398 37.1491ZM12.6432 35.8849L26.5098 16.9057L23.8233 14.5411L9.95665 33.5203L12.6432 35.8849ZM17.3266 9.34621L20.9723 4.35697L18.2858 1.99214L14.6401 6.98139L17.3266 9.34621ZM21.0375 4.26177C21.3557 3.76506 21.974 3.63174 22.4398 3.95939L24.298 0.777035C22.2793 -0.642783 19.5999 -0.0650893 18.2206 2.08734L21.0375 4.26177ZM22.2674 3.82073L27.4031 8.51263L29.6062 5.60758L24.4705 0.915675L22.2674 3.82073ZM27.286 8.39523C27.4603 8.58697 27.5576 8.84726 27.5562 9.1182L30.9999 9.13896C31.0064 7.85962 30.5467 6.6305 29.7232 5.72501L27.286 8.39523ZM27.5562 9.1182C27.5551 9.38913 27.455 9.64822 27.2787 9.83786L29.6893 12.5373C30.5217 11.6418 30.9935 10.4183 30.9999 9.13896L27.5562 9.1182ZM27.1412 10.0045L23.8233 14.5411L26.5098 16.9057L29.8268 12.3707L27.1412 10.0045ZM14.2806 8.44387C15.0825 14.3183 20.0357 18.3956 25.3984 17.5958L24.9347 13.8506C21.4384 14.372 18.2091 11.7137 17.6861 7.88374L14.2806 8.44387Z" fill="#73AD75"/>
</svg>
